<mxfile host="app.diagrams.net" modified="2024-07-02T14:03:46.762Z" agent="Mozilla/5.0 (Windows NT 10.0; Win64; x64) AppleWebKit/537.36 (KHTML, like Gecko) Chrome/126.0.0.0 Safari/537.36" version="24.6.4" etag="9xcSUyNzJ2gbLiiCwX2L" type="github">
  <diagram name="Page-1" id="2VtC6YXDffIF7QngygkM">
    <mxGraphModel>
      <root>
        <mxCell id="0" />
        <mxCell id="1" parent="0" />
      </root>
    </mxGraphModel>
  </diagram>
</mxfile>
